<?xml version="1.0" encoding="utf-8"?>
<!-- Generator: Adobe Illustrator 26.0.2, SVG Export Plug-In . SVG Version: 6.00 Build 0)  -->
<svg version="1.1" id="Layer_1" xmlns="http://www.w3.org/2000/svg" xmlns:xlink="http://www.w3.org/1999/xlink" x="0px" y="0px"
	 viewBox="0 0 426.5 213.9" style="enable-background:new 0 0 426.5 213.9;" xml:space="preserve">
<style type="text/css">
	.st0{fill:#F88D2A;}
	.st1{fill:#3D3935;}
</style>
<path class="st0" d="M269.1,69.8L214.9,15c-0.1-0.1-0.2-0.1-0.2,0l-54.3,54.7c0,0,0,0.1,0,0.1v55.1c0,0.1,0.1,0.2,0.1,0.2H269
	c0.1,0,0.2-0.1,0.2-0.1c0,0,0,0,0,0v-55C269.2,69.9,269.2,69.8,269.1,69.8z M253.8,108.3c0,1.1-0.2,1.3-1.2,1.3h-75.7
	c-1.1,0-1.1-0.9-1.1-1.2V77.8c0-1.6,0-1.6,1-2.7l0,0c1-1,36.2-36.5,36.6-36.8c0.6-0.6,1-0.9,1.4-0.9s0.8,0.3,1.2,0.8
	c1,1,36.7,37,37.1,37.3c0.5,0.4,0.8,1,0.7,1.6L253.8,108.3z"/>
<path class="st1" d="M133.9,169c-11-0.9-18.8-1.8-18.8-6.4c0-1.1,0.5-2.2,1.3-2.9c2.9-2.9,9.9-3.9,15.5-3.8
	c8.5,0.1,15.3,2.3,20.2,6.6l0.5,0.5l6.5-7l-0.6-0.5c-6.5-5.5-16.1-8.6-26.8-8.6c-16.1,0-26.9,6.6-26.9,16.3
	c0,11.7,15.8,14.3,27.7,15.3c12.5,1.1,18.4,2.4,18.4,6.9c0,4.8-6.1,7.5-16.7,7.5c-10.2,0-18-2.8-24.6-8.7l-0.6-0.5l-6.4,7.2l0.6,0.5
	c7.9,6.8,18.5,10.4,30.7,10.4c16.9,0,27.4-6.6,27.4-17.2C161.3,172.8,148.2,170.1,133.9,169z"/>
<polygon class="st1" points="216.8,169.4 180.1,169.4 180.1,148.4 170,148.4 170,200.4 180.1,200.4 180.1,178.6 216.8,178.6 
	216.8,200.4 227,200.4 227,148.4 216.8,148.4 "/>
<polygon class="st1" points="247.3,148.4 237.1,148.4 237.1,200.4 284.5,200.4 284.5,191.2 247.3,191.2 "/>
<polygon class="st1" points="302.7,178.5 337.2,178.5 337.2,169.4 302.7,169.4 302.7,157.4 343.7,157.4 343.7,148.4 292.6,148.4 
	292.6,200.4 344.4,200.4 344.4,191.3 302.7,191.3 "/>
<polygon class="st1" points="379.9,173.5 361,148.4 349.1,148.4 374.8,182.4 374.8,200.4 384.9,200.4 384.9,182.4 410.5,148.4 
	398.7,148.4 "/>
<path class="st1" d="M53.6,136.5L19,200.4h11.9l8.1-15.4h41l8.2,15.4h12l-34.6-63.9H53.6z M43.9,175.6l15.6-29.6l15.6,29.6H43.9z"/>
</svg>
