<svg xmlns="http://www.w3.org/2000/svg" width="27.982" height="27.999" viewBox="0 0 27.982 27.999"><defs><style>.a{fill:#ed1c24;}.b{fill:#fff;}.c{fill:#21409a;}.d{fill:#231f20;}</style></defs><g transform="translate(0 -0.01)"><path class="a" d="M50.13,20.88H62.595a13.85,13.85,0,0,0-1.686-2.53H50.13Z" transform="translate(-36.139 -13.222)"/><path class="b" d="M50.13,29.93H63.584a14.033,14.033,0,0,0-1-2.53H50.13Z" transform="translate(-36.139 -19.729)"/><path class="a" d="M50.13,38.944H64.065a14.1,14.1,0,0,0-.481-2.544H50.13Z" transform="translate(-36.139 -26.199)"/><path class="b" d="M50.13,48H64.065c.037-.422.056-.843.056-1.273s-.02-.843-.056-1.273H50.13Z" transform="translate(-36.139 -32.706)"/><path class="a" d="M29.547,93.254a13.932,13.932,0,0,0,8.047-2.544H21.5A13.932,13.932,0,0,0,29.547,93.254Z" transform="translate(-15.556 -65.245)"/><path class="b" d="M14.476,84.24H30.569a14.052,14.052,0,0,0,2.746-2.53H11.73a14.126,14.126,0,0,0,2.746,2.53Z" transform="translate(-8.532 -58.775)"/><path class="a" d="M7.452,75.19H29.037a13.851,13.851,0,0,0,1.686-2.53H5.78a13.851,13.851,0,0,0,1.672,2.53Z" transform="translate(-4.254 -52.268)"/><path class="b" d="M3.221,66.14H28.15a14.033,14.033,0,0,0,1-2.53H2.22a14.033,14.033,0,0,0,1,2.53Z" transform="translate(-1.694 -45.762)"/><line class="b" y1="2.544" transform="translate(13.991 2.57)"/><path class="b" d="M14.476,9.25a14.126,14.126,0,0,0-2.746,2.544" transform="translate(-8.532 -6.68)"/><path class="b" d="M49.78,38.814h0V36.27" transform="translate(-35.789 -26.069)"/><path class="b" d="M1.019,36.4A14.1,14.1,0,0,0,.55,38.944" transform="translate(-0.494 -26.199)"/><path class="b" d="M.406,45.45c-.037.419-.056.843-.056,1.273S.37,47.566.406,48H14.341V45.45h0" transform="translate(-0.35 -32.706)"/><path class="a" d="M14.485,54.51H.55a14.1,14.1,0,0,0,.469,2.544h26.92a14.1,14.1,0,0,0,.469-2.544Z" transform="translate(-0.494 -39.219)"/><path class="a" d="M58.177,2.744A13.932,13.932,0,0,0,50.13.2V2.744Z" transform="translate(-36.139 -0.173)"/><path class="b" d="M50.13,11.83H60.923A14.053,14.053,0,0,0,58.177,9.3H50.13Z" transform="translate(-36.139 -6.716)"/><path class="b" d="M29.547,2.744V.2A13.932,13.932,0,0,0,21.5,2.744" transform="translate(-15.556 -0.173)"/><line class="b" y1="2.544" transform="translate(13.991 5.114)"/><path class="b" d="M7.452,18.3A13.85,13.85,0,0,0,5.78,20.844" transform="translate(-4.254 -13.186)"/><path class="c" d="M14.372.16S7.8-.458,2.939,6.085a14.049,14.049,0,0,0-2.5,9.34H14.372Z" transform="translate(-0.381 -0.134)"/><path class="d" d="M14.365,15.424H.425A14.823,14.823,0,0,1,.63,11.556a14.559,14.559,0,0,1,.883-2.945,13.429,13.429,0,0,1,.961-1.875c.267-.424.453-.655.453-.658A15.458,15.458,0,0,1,6.765,2.4,13.657,13.657,0,0,1,10.47.662a13.032,13.032,0,0,1,2.791-.5,7.67,7.67,0,0,1,1.1,0h0Zm-13.935,0H14.359V.159a7.926,7.926,0,0,0-1.1,0,13.061,13.061,0,0,0-2.791.5A14.6,14.6,0,0,0,2.932,6.084a6.718,6.718,0,0,0-.453.655,13.429,13.429,0,0,0-.961,1.875,14.733,14.733,0,0,0-1.088,6.8Z" transform="translate(-0.371 -0.13)"/><path class="b" d="M41.708,4.45l.3.6.66.1-.478.469.112.658-.593-.312-.59.312.112-.658-.481-.469.663-.1Z" transform="translate(-29.297 -3.192)"/><path class="b" d="M31.538,7.69l.3.6.663.1-.481.467.112.658-.59-.309-.593.309.112-.658-.478-.467.663-.1Z" transform="translate(-21.985 -5.522)"/><path class="b" d="M21.748,11.68l.3.6.66.1-.478.467.112.66-.59-.312-.593.312.112-.66-.478-.467.66-.1Z" transform="translate(-14.947 -8.39)"/><path class="b" d="M13.9,16.21l.3.6.663.1-.481.469.112.658-.59-.312-.593.312.112-.658L12.94,16.9l.66-.1Z" transform="translate(-9.303 -11.647)"/><path class="b" d="M13.9,25.26l.3.6.663.1-.481.469.112.658-.59-.309-.593.309.112-.658-.478-.469.66-.1Z" transform="translate(-9.303 -18.154)"/><path class="b" d="M6.388,28.5l.3.6.663.1-.481.467.112.658-.59-.309-.593.309.112-.658L5.43,29.2l.66-.1Z" transform="translate(-3.904 -20.483)"/><path class="b" d="M6.388,38.91l.3.6.663.1-.481.467.112.66-.59-.312-.593.312.112-.66L5.43,39.6l.66-.1Z" transform="translate(-3.904 -27.967)"/><path class="b" d="M13.9,34.31l.3.6.663.1-.481.467.112.658-.59-.309-.593.309.112-.658-.478-.467.66-.1Z" transform="translate(-9.303 -24.66)"/><path class="b" d="M13.9,43.36l.3.6.663.1-.481.467.112.658-.59-.309-.593.309.112-.658-.478-.467.66-.1Z" transform="translate(-9.303 -31.167)"/><path class="b" d="M21.748,20.73l.3.6.66.1-.478.467.112.66-.59-.312-.593.312.112-.66-.478-.467.66-.1Z" transform="translate(-14.947 -14.897)"/><path class="b" d="M21.748,30.89l.3.6.66.1-.478.467.112.658-.59-.309-.593.309.112-.658-.478-.467.66-.1Z" transform="translate(-14.947 -22.201)"/><path class="b" d="M21.748,41.04l.3.6.66.1-.478.467.112.66-.59-.312-.593.312.112-.66-.478-.467.66-.1Z" transform="translate(-14.947 -29.499)"/><path class="b" d="M31.538,17.11l.3.6.663.1-.481.467.112.66-.59-.312-.593.312.112-.66-.478-.467.663-.1Z" transform="translate(-21.985 -12.294)"/><path class="b" d="M31.538,26.54l.3.6.663.1-.481.467.112.658-.59-.309-.593.309.112-.658-.478-.467.663-.1Z" transform="translate(-21.985 -19.074)"/><path class="b" d="M31.538,35.96l.3.6.663.1-.481.467.112.66-.59-.312-.593.312.112-.66-.478-.467.663-.1Z" transform="translate(-21.985 -25.846)"/><path class="b" d="M31.538,45.39l.3.6.663.1-.481.467.112.658-.59-.309-.593.309.112-.658-.478-.467.663-.1Z" transform="translate(-21.985 -32.626)"/><path class="b" d="M41.708,13.87l.3.6.66.1-.478.467.112.66-.593-.312-.59.312.112-.66-.481-.467.663-.1Z" transform="translate(-29.297 -9.965)"/><path class="b" d="M41.708,23.3l.3.6.66.1-.478.467.112.66-.593-.312-.59.312.112-.66-.481-.467.663-.1Z" transform="translate(-29.297 -16.745)"/><path class="b" d="M41.708,32.72l.3.6.66.1-.478.467.112.66-.593-.312-.59.312.112-.66-.481-.467.663-.1Z" transform="translate(-29.297 -23.517)"/><path class="b" d="M41.708,42.15l.3.6.66.1-.478.467.112.66-.593-.312-.59.312.112-.66-.481-.467.663-.1Z" transform="translate(-29.297 -30.297)"/></g></svg>